<svg width="130" height="154" viewBox="0 0 130 154" fill="none" xmlns="http://www.w3.org/2000/svg">
<path d="M39 113H61V144C61 149.523 56.5228 154 51 154H49C43.4772 154 39 149.523 39 144V113Z" fill="#333333"/>
<rect x="39" y="42" width="52" height="71" fill="#333333"/>
<path d="M69 113H91V144C91 149.523 86.5228 154 81 154H79C73.4772 154 69 149.523 69 144V113Z" fill="#333333"/>
<path d="M91 15C91 10.0294 95.0294 6 100 6C104.971 6 109 10.0294 109 15V50C109 59.9411 100.941 68 91 68V15Z" fill="#333333"/>
<path d="M39 15C39 10.0294 34.9706 6 30 6C25.0294 6 21 10.0294 21 15V50C21 59.9411 29.0589 68 39 68V15Z" fill="#333333"/>
<circle cx="65.5" cy="29.5" r="18.5" fill="#333333"/>
<path d="M34.4607 45.9628L37.144 35.6921L44.87 43.8811L34.4607 45.9628Z" fill="#333333"/>
<path d="M95.189 46.9628L92.5057 36.6921L84.7797 44.8811L95.189 46.9628Z" fill="#333333"/>
<rect y="10" width="130" height="8" rx="4" fill="#333333"/>
<rect x="11" width="6" height="27" rx="3" fill="#333333"/>
<rect x="3" width="6" height="27" rx="3" fill="#333333"/>
<rect x="121" width="6" height="27" rx="3" fill="#333333"/>
<rect x="113" width="6" height="27" rx="3" fill="#333333"/>
</svg>
